<?xml version="1.0" encoding="UTF-8" standalone="no"?>
<!DOCTYPE svg PUBLIC "-//W3C//DTD SVG 1.1//EN" "http://www.w3.org/Graphics/SVG/1.1/DTD/svg11.dtd">
<svg width="100%" height="100%" viewBox="0 0 417 379" version="1.1" xmlns="http://www.w3.org/2000/svg" xmlns:xlink="http://www.w3.org/1999/xlink" xml:space="preserve" xmlns:serif="http://www.serif.com/" style="fill-rule:evenodd;clip-rule:evenodd;stroke-linejoin:round;stroke-miterlimit:2;">
    <g id="Raven" transform="matrix(1,0,0,1,-799,3)">
        <path id="Outline" d="M1024,369C1019.62,344.623 993.698,304.426 949,278C878.413,241.698 869.072,204.799 803.625,171.825C866.657,89.853 879.941,29.357 971,1C1039.75,-1.361 1060.37,33.666 1073,37C1161.01,47.516 1207.87,88.579 1212.73,111.55C1185.12,119.783 1122.27,110.184 1089,119C1063.38,135.467 1062.57,172.181 1061,219C1057.54,226.102 1059.53,216.898 1050,195.45C1050.11,241.219 1050.67,280.641 1054,315C1053.9,319.068 1052.14,312.372 1050.28,308.052C1048.92,312.082 1047.61,321.775 1046,326C1044.4,321.857 1045.17,322.161 1043,318C1042.89,323.087 1042,334 1042,334C1042,334 1039.02,329.132 1036.07,327.598C1035.81,331.342 1033.89,342.298 1031.27,348.951C1027.76,357.869 1027.63,359.998 1024,369Z" style="fill:rgb(51,50,46);"/>
        <path id="Ruff" d="M946,153C954.927,167.579 971.804,178.82 982,183C989.393,187.281 993.334,191.606 1000,196C1006.67,188.993 1014.04,183.367 1021,178C1025.71,176.039 1034.01,176.304 1036,181C1034.98,192.008 1040.36,220.91 1043,230C1045.17,220.931 1046.34,209.527 1049,204C1050.83,217.167 1053.83,292.167 1054,309C1054.02,310.886 1052.42,306.739 1050,305C1048.67,307.167 1047.81,316.655 1046,322C1044.5,319.718 1044.38,319.381 1042,317C1042.58,320.238 1042,333 1042,333C1042,333 1038.2,328.41 1035,324C1035.24,328.019 1035.2,336.556 1035,344C1028.96,346.661 1028.65,360.222 1024,371C1018.26,348.688 1003.88,339.881 994,330C983.167,308.167 967.5,257 960,238C957.146,247.231 950.389,221.183 948,214C945.143,217.275 943.987,221.889 926,223C923.841,211.328 923.204,188.362 923,175C930.397,163.979 936,155.49 946,153Z" style="fill:rgb(62,74,63);"/>
        <path id="Beard" d="M1090,119C1077.39,119.046 1051.83,122.426 1033,129C1012.33,136.833 977.196,156.706 966,166C972.47,174.255 986.088,184.513 997,191C1004.17,196.548 1012.32,202.278 1019,207C1023.95,198.213 1031.37,187.634 1035,184C1036.9,193.529 1041.56,222.174 1047,233C1049.67,223.043 1050.89,203.131 1051,197C1052.5,200.222 1054.49,212.909 1056,217C1057.17,213.471 1057,209.644 1058,207C1058.3,209.654 1058.55,216.372 1060,224C1061,217.167 1061.35,184.113 1064,166C1069.31,147.65 1073.82,129.017 1090,119Z" style="fill:rgb(10,17,10);"/>
        <path id="Cap" d="M860.712,88.583C852.844,92.309 870.952,103.764 877,109C882.752,113.98 890.833,118 897,120C902.4,121.751 910,122 914,121C917.201,120.2 919.137,116.723 921,114C923.167,110.833 923.714,105.033 927,102C931.333,98 942.589,93.167 947,90C944.954,87.272 942.456,84.711 942,83C943.934,79.855 946.66,76.226 950,74C955,70.667 967.833,67 972,63C971.863,57.531 973.136,54.417 975,50C981.845,46.355 985.422,44.934 993,44C1001.06,46.411 1002.4,49.816 1009,53C1016.77,47.099 1024.67,44.833 1031,43C1036.13,41.514 1043.01,45.045 1047,42C1050.99,38.955 1061.12,23.189 1054.96,24.727C1030.13,7.164 942.939,-39.464 860.712,88.583Z" style="fill:rgb(145,143,140);"/>
        <g id="Beak">
            <path d="M1209.83,112.548C1182.11,96.947 1168.07,93.665 1146,90C1119.36,85.575 1071.5,85.667 1050,87C1038.74,87.698 1024.5,92.667 1019,97C1015.07,100.101 1017.92,107.087 1022,110C1026.67,113.333 1036.19,115.972 1046,116C1078.14,116.091 1190.16,115.595 1209.83,112.548Z" style="fill:rgb(78,83,78);"/>
            <path d="M1212,112C1220.2,112.149 1207.22,95.344 1201,90C1190.33,80.833 1165.5,65.5 1148,57C1131.5,48.986 1108.5,42.333 1096,39C1088.56,37.017 1073.32,36.676 1073,37C1072.68,37.324 1061.33,30.833 1057,31C1052.93,31.156 1048.5,34.833 1047,38C1045.5,41.167 1047,46.167 1048,50C1049,53.833 1051.67,58.5 1053,61C1053.78,62.471 1056.33,63.366 1056,65C1055.67,66.667 1052.99,69.318 1051,71C1046.67,74.667 1036,83.167 1030,87C1025.35,89.971 1014.83,93 1015,94C1015.17,95 1025.78,94.129 1031,93C1037.17,91.667 1044.63,86.256 1052,86C1071.17,85.333 1119.33,84.667 1146,89C1169,92.737 1202.83,111.833 1212,112Z" style="fill:rgb(97,106,98);"/>
            <path d="M1110.95,115.711C1103.04,115.201 1057.91,117.783 1043.53,115.938C1036.51,114.234 1029.59,110.156 1025,107C1021.31,104.458 1017.78,99.263 1016,97C1015.85,100.609 1016.92,104.893 1018,108C1019.17,109.464 1017.32,110.905 1014,112C1016.77,114.107 1018.4,115.5 1020,117C1020.34,118.312 1020.21,119.233 1020,121C1022.65,119.808 1027.96,120.667 1031,122C1030.81,124.751 1031.52,126.945 1031,129C1034.34,129.333 1047.3,125.382 1051,124C1050.96,125.15 1051.24,126.083 1052,128C1053.78,127.488 1056.04,127.492 1058,127C1060,126.5 1062.17,126 1064,125C1065.43,122.988 1066.92,122.475 1069,121C1073.5,120 1084.01,119.881 1091,119C1097.69,118.157 1117.67,116.145 1110.95,115.711Z" style="fill:rgb(2,2,2);"/>
        </g>
        <path id="Eye-Shadow" serif:id="Eye Shadow" d="M1009,54C1010.33,56.987 1012,61.333 1012,65C1012,68.667 1010.94,72.365 1009,76C1005.83,78.5 998.786,80.587 993,80C986.174,79.253 982.94,73.967 981,72C980.365,72.914 979.688,73.097 978,73C979.167,75.333 983.406,83.036 988,86C993.167,89.333 1001.64,93.47 1009,93C1016.83,92.5 1028.67,87.333 1035,83C1040.5,79.235 1045.17,71.667 1047,67C1048.47,63.264 1047.67,57.5 1046,55C1043.45,52.34 1038.83,54.167 1037,52C1034.93,48.953 1035,42 1035,42C1035,42 1032.56,41.825 1031,42C1029.09,43.786 1027.21,44.573 1025,46C1022.67,47 1020.1,46.974 1017,49C1013.77,49.773 1010.95,51.573 1009,54Z" style="fill:rgb(30,28,25);"/>
        <g id="eye">
            <path d="M981.522,50.912C988.852,45.45 1000.83,48.884 1005.52,52.912C1012.61,57.657 1011.36,68.928 1009.52,73.912C1001.24,79.852 996.147,82.285 984.522,74.912C978.632,70.167 975.865,59.241 981.522,50.912Z" style="fill:rgb(104,108,102);"/>
            <path d="M983.522,54.912C990.852,49.45 995.827,49.884 1000.52,53.912C1007.61,58.657 1007.36,66.928 1005.52,71.912C999.865,76.418 996.085,77.179 988.522,72.912C982.632,70.795 978.821,61.33 983.522,54.912Z" style="fill:rgb(13,8,8);"/>
            <path d="M983.522,54.912C990.852,49.45 995.226,52.168 1000.52,53.912C1012.18,59.498 1004.39,67.69 999.915,72.917C993.156,73.456 993.152,73.518 1002.52,62.912C990.614,64.292 978.821,61.33 983.522,54.912Z" style="fill:rgb(165,167,166);"/>
        </g>
    </g>
    <g id="Raven1" serif:id="Raven" transform="matrix(1,0,0,1,-799,3)">
        <path id="Outline1" serif:id="Outline" d="M1024,369C1019.62,344.623 993.698,304.426 949,278C878.413,241.698 869.072,204.799 803.625,171.825C866.657,89.853 879.941,29.357 971,1C1039.75,-1.361 1060.37,33.666 1073,37C1161.01,47.516 1207.87,88.579 1212.73,111.55C1185.12,119.783 1122.27,110.184 1089,119C1063.38,135.467 1062.57,172.181 1061,219C1057.54,226.102 1059.53,216.898 1050,195.45C1050.11,241.219 1050.67,280.641 1054,315C1053.9,319.068 1052.14,312.372 1050.28,308.052C1048.92,312.082 1047.61,321.775 1046,326C1044.4,321.857 1045.17,322.161 1043,318C1042.89,323.087 1042,334 1042,334C1042,334 1039.02,329.132 1036.07,327.598C1035.81,331.342 1033.89,342.298 1031.27,348.951C1027.76,357.869 1027.63,359.998 1024,369Z" style="fill:rgb(171,164,219);stroke:rgb(170,93,42);stroke-width:1px;"/>
        <path id="Ruff1" serif:id="Ruff" d="M946,153C954.927,167.579 971.804,178.82 982,183C989.393,187.281 993.334,191.606 1000,196C1006.67,188.993 1014.04,183.367 1021,178C1025.71,176.039 1034.01,176.304 1036,181C1034.98,192.008 1040.36,220.91 1043,230C1045.17,220.931 1046.34,209.527 1049,204C1050.83,217.167 1053.83,292.167 1054,309C1054.02,310.886 1052.42,306.739 1050,305C1048.67,307.167 1047.81,316.655 1046,322C1044.5,319.718 1044.38,319.381 1042,317C1042.58,320.238 1042,333 1042,333C1042,333 1038.2,328.41 1035,324C1035.24,328.019 1035.2,336.556 1035,344C1028.96,346.661 1028.65,360.222 1024,371C1018.26,348.688 1003.88,339.881 994,330C983.167,308.167 967.5,257 960,238C957.146,247.231 950.389,221.183 948,214C945.143,217.275 943.987,221.889 926,223C923.841,211.328 923.204,188.362 923,175C930.397,163.979 936,155.49 946,153Z" style="fill:rgb(27,17,109);stroke:rgb(170,93,42);stroke-width:2px;"/>
        <path id="Beard1" serif:id="Beard" d="M1090,119C1077.39,119.046 1051.83,122.426 1033,129C1012.33,136.833 977.196,156.706 966,166C972.47,174.255 986.088,184.513 997,191C1004.17,196.548 1012.32,202.278 1019,207C1023.95,198.213 1031.37,187.634 1035,184C1036.9,193.529 1041.56,222.174 1047,233C1049.67,223.043 1050.89,203.131 1051,197C1052.5,200.222 1054.49,212.909 1056,217C1057.17,213.471 1057,209.644 1058,207C1058.3,209.654 1058.55,216.372 1060,224C1061,217.167 1061.35,184.113 1064,166C1069.31,147.65 1073.82,129.017 1090,119Z" style="fill:rgb(65,57,130);stroke:rgb(170,93,42);stroke-width:2px;"/>
        <path id="Cap1" serif:id="Cap" d="M860.712,88.583C852.844,92.309 870.952,103.764 877,109C882.752,113.98 890.833,118 897,120C902.4,121.751 910,122 914,121C917.201,120.2 919.137,116.723 921,114C923.167,110.833 923.714,105.033 927,102C931.333,98 942.589,93.167 947,90C944.954,87.272 942.456,84.711 942,83C943.934,79.855 946.66,76.226 950,74C955,70.667 967.833,67 972,63C971.863,57.531 973.136,54.417 975,50C981.845,46.355 985.422,44.934 993,44C1001.06,46.411 1002.4,49.816 1009,53C1016.77,47.099 1024.67,44.833 1031,43C1036.13,41.514 1043.01,45.045 1047,42C1050.99,38.955 1061.12,23.189 1054.96,24.727C1030.13,7.164 942.939,-39.464 860.712,88.583Z" style="fill:rgb(105,99,153);stroke:rgb(170,93,42);stroke-width:2px;"/>
        <g id="Beak1" serif:id="Beak">
            <path d="M1209.83,112.548C1182.11,96.947 1168.07,93.665 1146,90C1119.36,85.575 1071.5,85.667 1050,87C1038.74,87.698 1024.5,92.667 1019,97C1015.07,100.101 1017.92,107.087 1022,110C1026.67,113.333 1036.19,115.972 1046,116C1078.14,116.091 1190.16,115.595 1209.83,112.548Z" style="fill:rgb(132,99,153);stroke:rgb(170,93,42);stroke-width:1px;"/>
            <path d="M1212,112C1220.2,112.149 1207.22,95.344 1201,90C1190.33,80.833 1165.5,65.5 1148,57C1131.5,48.986 1108.5,42.333 1096,39C1088.56,37.017 1073.32,36.676 1073,37C1072.68,37.324 1061.33,30.833 1057,31C1052.93,31.156 1048.5,34.833 1047,38C1045.5,41.167 1047,46.167 1048,50C1049,53.833 1051.67,58.5 1053,61C1053.78,62.471 1056.33,63.366 1056,65C1055.67,66.667 1052.99,69.318 1051,71C1046.67,74.667 1036,83.167 1030,87C1025.35,89.971 1014.83,93 1015,94C1015.17,95 1025.78,94.129 1031,93C1037.17,91.667 1044.63,86.256 1052,86C1071.17,85.333 1119.33,84.667 1146,89C1169,92.737 1202.83,111.833 1212,112Z" style="fill:rgb(105,99,153);stroke:rgb(170,93,42);stroke-width:1px;"/>
            <path d="M1110.95,115.711C1103.04,115.201 1057.91,117.783 1043.53,115.938C1036.51,114.234 1029.59,110.156 1025,107C1021.31,104.458 1017.78,99.263 1016,97C1015.85,100.609 1016.92,104.893 1018,108C1019.17,109.464 1017.32,110.905 1014,112C1016.77,114.107 1018.4,115.5 1020,117C1020.34,118.312 1020.21,119.233 1020,121C1022.65,119.808 1027.96,120.667 1031,122C1030.81,124.751 1031.52,126.945 1031,129C1034.34,129.333 1047.3,125.382 1051,124C1050.96,125.15 1051.24,126.083 1052,128C1053.78,127.488 1056.04,127.492 1058,127C1060,126.5 1062.17,126 1064,125C1065.43,122.988 1066.92,122.475 1069,121C1073.5,120 1084.01,119.881 1091,119C1097.69,118.157 1117.67,116.145 1110.95,115.711Z" style="fill:rgb(2,2,2);stroke:rgb(170,93,42);stroke-width:1px;"/>
        </g>
        <path id="Eye-Shadow1" serif:id="Eye Shadow" d="M1009,54C1010.33,56.987 1012,61.333 1012,65C1012,68.667 1010.94,72.365 1009,76C1005.83,78.5 998.786,80.587 993,80C986.174,79.253 982.94,73.967 981,72C980.365,72.914 979.688,73.097 978,73C979.167,75.333 983.406,83.036 988,86C993.167,89.333 1001.64,93.47 1009,93C1016.83,92.5 1028.67,87.333 1035,83C1040.5,79.235 1045.17,71.667 1047,67C1048.47,63.264 1047.67,57.5 1046,55C1043.45,52.34 1038.83,54.167 1037,52C1034.93,48.953 1035,42 1035,42C1035,42 1032.56,41.825 1031,42C1029.09,43.786 1027.21,44.573 1025,46C1022.67,47 1020.1,46.974 1017,49C1013.77,49.773 1010.95,51.573 1009,54Z" style="fill:rgb(132,99,153);stroke:rgb(170,93,42);stroke-width:1px;"/>
        <g id="eye1" serif:id="eye">
            <path d="M981.522,50.912C988.852,45.45 1000.83,48.884 1005.52,52.912C1012.61,57.657 1011.36,68.928 1009.52,73.912C1001.24,79.852 996.147,82.285 984.522,74.912C978.632,70.167 975.865,59.241 981.522,50.912Z" style="fill:rgb(65,57,130);stroke:rgb(170,93,42);stroke-width:2px;"/>
            <path d="M983.522,54.912C990.852,49.45 995.827,49.884 1000.52,53.912C1007.61,58.657 1007.36,66.928 1005.52,71.912C999.865,76.418 996.085,77.179 988.522,72.912C982.632,70.795 978.821,61.33 983.522,54.912Z" style="fill:rgb(13,8,8);"/>
            <path d="M983.522,54.912C990.852,49.45 995.226,52.168 1000.52,53.912C1012.18,59.498 1004.39,67.69 999.915,72.917C993.156,73.456 993.152,73.518 1002.52,62.912C990.614,64.292 978.821,61.33 983.522,54.912Z" style="fill:rgb(107,97,183);"/>
        </g>
    </g>
</svg>
